<?xml version="1.0" standalone="no"?>
<!DOCTYPE svg PUBLIC "-//W3C//DTD SVG 20010904//EN"
 "http://www.w3.org/TR/2001/REC-SVG-20010904/DTD/svg10.dtd">
<svg version="1.0" xmlns="http://www.w3.org/2000/svg"
 width="840.000000pt" height="840.000000pt" viewBox="0 0 840.000000 840.000000"
 preserveAspectRatio="xMidYMid meet">
<metadata>
Created by potrace 1.11, written by Peter Selinger 2001-2013
</metadata>
<g transform="translate(0.000000,840.000000) scale(0.100000,-0.100000)"
fill="#000000" stroke="none">
<path d="M6335 7619 c-16 -6 -37 -13 -45 -16 -8 -3 -21 -7 -28 -9 -28 -5 -108
-48 -165 -86 -147 -100 -290 -291 -380 -508 -5 -14 -11 -29 -13 -35 -1 -5 -8
-23 -15 -40 -7 -16 -13 -32 -13 -35 -1 -3 -5 -11 -9 -17 -5 -7 -5 -17 -2 -23
3 -5 2 -10 -4 -10 -5 0 -10 -8 -10 -17 0 -10 -15 -97 -34 -193 -19 -96 -41
-209 -48 -250 -7 -41 -14 -82 -16 -90 -8 -32 -12 -45 -13 -45 -1 0 -4 -11 -5
-25 -5 -32 -12 -69 -20 -100 -3 -14 -8 -36 -10 -50 -4 -26 -11 -59 -19 -95 -3
-11 -17 -69 -31 -130 -28 -124 -51 -196 -73 -240 -9 -16 -17 -32 -17 -35 -1
-3 -7 -18 -14 -35 -7 -16 -12 -32 -11 -34 1 -2 -3 -7 -8 -10 -5 -3 -29 -44
-52 -91 -24 -47 -61 -112 -83 -145 -22 -33 -40 -66 -40 -72 0 -7 -3 -13 -7
-13 -4 0 -26 -29 -49 -65 -23 -36 -46 -65 -52 -65 -5 0 -9 -6 -9 -13 0 -7 -12
-26 -26 -42 -14 -17 -48 -59 -76 -95 -81 -104 -215 -239 -348 -351 -36 -29
-74 -63 -85 -74 -11 -11 -43 -38 -70 -60 -62 -50 -105 -92 -131 -128 -11 -15
-27 -29 -37 -31 -9 -1 -27 -11 -39 -22 -13 -12 -40 -31 -60 -43 -20 -12 -40
-31 -43 -41 -4 -11 -10 -20 -14 -20 -4 0 -16 -8 -27 -17 -10 -10 -44 -37 -75
-60 -31 -23 -64 -49 -74 -59 -39 -40 -141 -116 -171 -129 -27 -11 -134 -83
-170 -114 -7 -5 -47 -29 -89 -53 -43 -24 -102 -64 -132 -91 -61 -53 -102 -77
-133 -77 -11 0 -43 -11 -70 -25 -28 -14 -53 -25 -56 -24 -4 0 -10 -3 -13 -8
-8 -10 -91 -56 -91 -49 0 2 -32 -13 -71 -35 -40 -21 -77 -39 -84 -39 -16 0
-25 -23 -31 -74 -2 -21 -9 -45 -16 -53 -30 -36 -118 -57 -134 -32 -12 20 -182
5 -239 -22 -27 -13 -54 -24 -60 -25 -5 -2 -73 -28 -150 -59 -77 -31 -144 -58
-150 -59 -63 -14 -75 -19 -75 -27 0 -6 -3 -8 -8 -5 -4 2 -45 -9 -91 -24 -47
-16 -88 -27 -92 -25 -4 3 -9 2 -11 -3 -1 -4 -30 -16 -63 -25 -33 -9 -98 -29
-145 -43 -47 -14 -93 -27 -102 -29 -9 -2 -26 -9 -37 -15 -12 -6 -21 -8 -21 -6
0 3 -21 -4 -46 -14 -25 -11 -50 -18 -54 -15 -5 3 -10 2 -12 -2 -1 -5 -34 -19
-73 -32 -38 -13 -102 -39 -142 -56 -39 -18 -74 -30 -77 -27 -3 3 -6 -1 -6 -8
0 -7 -3 -11 -6 -7 -7 7 -157 -84 -191 -116 -23 -20 -29 -50 -17 -81 3 -9 10
-13 15 -10 5 3 9 2 9 -3 0 -13 48 -29 135 -47 157 -31 253 -39 514 -42 267 -2
303 -7 271 -38 -8 -8 -143 -78 -300 -157 -157 -79 -288 -147 -291 -152 -3 -5
-8 -8 -10 -7 -7 3 -64 -24 -70 -33 -3 -5 -10 -9 -15 -9 -17 -1 -199 -91 -206
-102 -4 -6 -8 -7 -8 -2 0 5 -7 2 -16 -5 -9 -7 -23 -14 -31 -15 -8 -2 -24 -11
-35 -21 -11 -10 -23 -17 -27 -16 -11 5 -177 -96 -209 -127 -47 -44 -43 -53 23
-53 46 1 137 13 153 21 9 5 24 8 32 7 8 -1 22 2 31 6 9 5 27 10 40 13 31 6 36
8 214 56 83 22 170 47 195 56 25 9 51 16 58 17 6 0 12 3 12 7 0 3 10 7 23 8
23 1 56 7 97 17 48 12 75 17 90 19 8 0 17 4 20 7 5 5 393 105 449 116 13 2 32
8 43 14 10 5 18 7 18 5 0 -3 18 1 40 9 22 8 43 14 45 14 5 -1 43 7 80 16 11 3
94 21 185 41 91 20 167 39 170 43 3 4 16 6 30 5 14 -1 29 1 34 4 5 3 23 7 40
9 17 2 47 6 66 9 51 6 223 22 320 29 36 2 97 7 135 11 39 4 95 8 125 10 30 1
84 5 120 9 158 16 413 26 505 20 55 -3 109 -6 120 -5 35 1 175 -22 180 -30 3
-5 14 -6 25 -3 12 3 20 0 20 -6 0 -7 5 -9 10 -6 6 3 16 3 23 -2 6 -4 14 -8 17
-9 34 -6 77 -23 135 -52 115 -57 176 -104 235 -181 14 -18 30 -38 36 -44 5 -7
30 -41 54 -77 24 -36 46 -67 49 -70 24 -21 94 -141 146 -251 15 -31 36 -67 48
-82 12 -14 29 -35 37 -47 8 -13 37 -49 63 -81 55 -66 56 -88 4 -113 -40 -19
-87 -63 -109 -102 -20 -35 -14 -48 13 -33 11 5 19 6 19 2 0 -4 4 -2 9 6 5 8
16 11 26 7 20 -7 14 -50 -11 -77 -21 -23 -6 -30 27 -13 27 13 79 11 77 -5 0
-3 1 -9 2 -13 4 -12 7 -27 9 -38 0 -5 20 -15 44 -21 41 -12 53 -14 147 -23 25
-2 45 -5 45 -6 0 -3 77 -11 113 -13 17 0 32 -3 32 -7 0 -3 26 -7 58 -8 76 -3
91 -6 133 -31 20 -12 74 -30 120 -42 46 -11 91 -23 99 -26 8 -3 23 -5 33 -4
10 1 24 -2 30 -6 13 -10 15 -10 70 1 32 7 42 5 61 -13 20 -19 24 -20 29 -6 4
8 6 17 7 20 0 16 33 66 49 74 10 6 65 11 122 12 74 1 113 6 134 17 17 9 33 17
38 18 4 1 9 3 12 4 3 1 14 4 25 5 11 1 21 3 23 5 7 7 87 6 87 -1 0 -5 12 -4
28 2 15 6 28 10 30 10 11 -4 23 3 52 29 18 16 41 30 51 30 32 0 74 -21 100
-50 40 -43 46 -26 16 40 -14 30 -52 70 -67 70 -5 0 -10 4 -10 8 0 11 -18 12
-145 13 -123 0 -175 -3 -175 -12 0 -3 -15 -7 -32 -8 -37 -2 -82 -7 -145 -17
-61 -9 -69 1 -67 88 1 40 2 76 3 80 1 9 40 22 74 24 15 1 30 3 35 4 4 1 15 2
25 1 9 -1 17 3 17 8 0 6 5 11 10 11 6 0 24 9 39 21 l28 21 40 -21 c35 -17 58
-43 55 -62 0 -3 8 -10 19 -17 17 -11 19 -9 19 13 0 14 -4 25 -10 25 -5 0 -9 3
-8 8 5 15 -36 70 -66 88 -52 31 -109 50 -146 48 -53 -4 -103 -11 -120 -17 -8
-3 -66 -20 -129 -37 -142 -39 -218 -42 -281 -10 -39 20 -52 22 -115 15 -38 -5
-81 -8 -95 -8 -67 0 -181 89 -183 145 -2 27 -8 36 -39 51 -21 10 -51 19 -67
19 -35 1 -119 72 -127 109 -23 97 -26 213 -6 243 4 6 7 14 8 19 1 4 2 8 4 10
2 3 7 23 15 61 3 15 17 50 31 77 38 76 143 241 157 247 4 2 7 8 7 13 0 6 11
20 24 32 13 12 40 45 61 72 21 28 54 66 74 86 20 20 66 67 102 105 83 88 171
167 239 214 19 13 43 32 52 43 9 10 19 18 22 17 6 -1 74 47 86 60 3 3 48 40
100 82 89 71 187 157 271 238 20 19 59 57 87 83 70 65 170 180 220 254 45 67
133 245 135 275 1 10 5 18 9 18 3 0 7 8 6 18 0 9 3 26 6 37 49 173 61 443 31
660 -9 61 -18 135 -22 165 -3 30 -10 58 -15 61 -6 4 -8 11 -6 15 5 8 -2 64
-18 149 -3 17 -7 41 -9 55 -2 14 -7 36 -10 50 -3 14 -8 36 -10 50 -2 14 -23
113 -45 220 -23 107 -45 215 -50 240 -5 25 -14 60 -19 78 -5 17 -7 32 -4 32 3
0 1 6 -4 13 -6 6 -9 20 -8 29 2 10 -1 20 -6 24 -5 3 -7 10 -4 15 4 5 3 15 -2
22 -7 12 -10 21 -17 62 -2 11 -6 27 -9 35 -17 43 -57 371 -63 513 -11 263 17
382 108 468 22 20 57 45 79 55 21 11 39 22 39 26 0 4 7 5 15 2 8 -4 15 -1 15
7 0 7 3 9 6 6 4 -3 16 -1 28 5 11 6 35 13 51 15 17 2 48 7 70 10 56 8 185 7
215 -1 14 -4 31 -8 38 -8 6 -1 12 -4 12 -8 0 -3 10 -6 23 -7 27 -1 78 -12 89
-19 19 -12 18 27 -1 70 -28 61 -71 101 -196 186 -44 29 -103 77 -131 106 -29
29 -75 64 -104 79 -29 15 -83 55 -120 90 -58 54 -174 133 -190 128 -3 0 -22 8
-42 18 -21 11 -38 17 -38 13 0 -4 -6 -1 -14 5 -28 23 -298 38 -351 20z"/>
</g>
</svg>
